<svg width="77" height="52" viewBox="0 0 77 52" fill="none" xmlns="http://www.w3.org/2000/svg">
<mask id="mask0_2_1431" style="mask-type:luminance" maskUnits="userSpaceOnUse" x="0" y="0" width="77" height="35">
<path d="M76.7163 0H0V34.2749H76.7163V0Z" fill="white"/>
</mask>
<g mask="url(#mask0_2_1431)">
<mask id="mask1_2_1431" style="mask-type:luminance" maskUnits="userSpaceOnUse" x="0" y="0" width="35" height="35">
<path d="M34.6282 0.0664062H0.017334V34.2692H34.6282V0.0664062Z" fill="white"/>
</mask>
<g mask="url(#mask1_2_1431)">
<mask id="mask2_2_1431" style="mask-type:luminance" maskUnits="userSpaceOnUse" x="0" y="0" width="35" height="35">
<path d="M17.9853 34.2692C14.0996 34.2692 10.8151 33.6428 8.13406 32.3905C5.45227 31.1383 3.42868 29.2438 2.064 26.7062C0.698593 24.1693 0.017334 20.9901 0.017334 17.1678C0.017334 11.5483 1.5745 7.2928 4.68955 4.40196C7.8046 1.51183 12.2202 0.0664062 17.937 0.0664062C21.1804 0.0664062 24.0546 0.548695 26.5605 1.51183C29.0649 2.47496 31.0316 3.90453 32.4611 5.79908C33.8893 7.69435 34.6051 10.0712 34.6051 12.9289H28.7759C28.7759 11.1302 28.326 9.64585 27.427 8.47293C26.5273 7.30073 25.2593 6.41834 23.6214 5.82359C21.9827 5.22956 20.0723 4.93255 17.8887 4.93255C15.4152 4.93255 13.2878 5.36581 11.5057 6.23307C9.72366 7.10032 8.35033 8.40084 7.38719 10.1346C6.42334 11.8691 5.94177 14.0211 5.94177 16.5897V17.746C5.94177 20.347 6.42334 22.5076 7.38719 24.2255C8.35033 25.9442 9.73087 27.2288 11.5295 28.0795C13.3282 28.9309 15.4794 29.3562 17.9853 29.3562C20.2006 29.3562 22.1356 29.0672 23.79 28.489C25.4438 27.9108 26.7205 27.0356 27.6195 25.8634C28.5185 24.6912 28.9691 23.222 28.9691 21.4558H34.6051C34.6051 24.2825 33.8893 26.6507 32.4611 28.5611C31.0316 30.4722 29.0722 31.9018 26.5843 32.8483C24.095 33.7956 21.2294 34.2692 17.9853 34.2692Z" fill="white"/>
</mask>
<g mask="url(#mask2_2_1431)">
<mask id="mask3_2_1431" style="mask-type:luminance" maskUnits="userSpaceOnUse" x="0" y="0" width="35" height="35">
<path d="M34.621 0.0517578H0V34.2748H34.621V0.0517578Z" fill="white"/>
</mask>
<g mask="url(#mask3_2_1431)">
<path d="M34.5972 0.0664062H0.017334V34.2692H34.5972V0.0664062Z" fill="white"/>
</g>
</g>
</g>
<mask id="mask4_2_1431" style="mask-type:luminance" maskUnits="userSpaceOnUse" x="39" y="0" width="38" height="35">
<path d="M76.7069 0.0107422H39.4114V34.264H76.7069V0.0107422Z" fill="white"/>
</mask>
<g mask="url(#mask4_2_1431)">
<mask id="mask5_2_1431" style="mask-type:luminance" maskUnits="userSpaceOnUse" x="39" y="0" width="38" height="35">
<path d="M57.5257 34.264C51.5832 34.264 47.079 32.8669 44.0122 30.0727C40.9448 27.2784 39.4114 22.9746 39.4114 17.1612C39.4114 13.3389 40.1741 10.1597 41.6995 7.62211C43.225 5.08522 45.4497 3.18202 48.3716 1.91322C51.2941 0.645143 54.7797 0.0107422 58.8269 0.0107422C61.3631 0.0107422 63.7168 0.260177 65.8846 0.757605C68.0524 1.25575 69.9469 2.01055 71.569 3.02198C73.1903 4.03342 74.4512 5.30294 75.3509 6.82766C76.2498 8.35383 76.6997 10.1446 76.6997 12.1992H68.9917C68.9917 11.1719 68.7264 10.2801 68.1966 9.52531C67.6667 8.77051 66.9436 8.15197 66.0288 7.67041C65.1132 7.18812 64.0607 6.82766 62.8734 6.58616C61.6846 6.34537 60.4317 6.22498 59.1153 6.22498C57.2849 6.22498 55.6463 6.43405 54.2016 6.85145C52.7561 7.26958 51.5191 7.91119 50.4918 8.77844C49.4637 9.6457 48.6852 10.7141 48.1553 11.9814C47.6254 13.251 47.3601 14.7519 47.3601 16.4864V17.7869C47.3601 20.1645 47.7941 22.1073 48.6606 23.6162C49.5279 25.1265 50.788 26.2418 52.4425 26.9641C54.0963 27.6872 56.1112 28.0484 58.4881 28.0484C60.7042 28.0484 62.5987 27.7917 64.1732 27.2777C65.7462 26.7644 66.9588 26.0255 67.8102 25.0616C68.6601 24.0978 69.0862 22.9414 69.0862 21.5933V21.2559H57.8126V15.475H76.6975V33.6852H71.8321L71.109 29.7829C70.0169 30.8109 68.7884 31.6543 67.4238 32.3125C66.0584 32.9707 64.5574 33.4609 62.9188 33.7817C61.2809 34.1026 59.4822 34.264 57.5235 34.264H57.5257Z" fill="white"/>
</mask>
<g mask="url(#mask5_2_1431)">
<mask id="mask6_2_1431" style="mask-type:luminance" maskUnits="userSpaceOnUse" x="39" y="0" width="38" height="35">
<path d="M76.7163 0H39.3962V34.2749H76.7163V0Z" fill="white"/>
</mask>
<g mask="url(#mask6_2_1431)">
<path d="M76.7069 0.0107422H39.4114V34.264H76.7069V0.0107422Z" fill="white"/>
</g>
</g>
</g>
</g>
<path d="M0 51.5014V43.5154H4.74526V44.3733H0.958325V47.0717H4.38975V47.9295H0.958325V51.5014H0ZM13.7564 43.5154H14.7147V48.803C14.7147 49.3489 14.5872 49.8363 14.3322 50.2653C14.0797 50.6916 13.7229 51.0283 13.2618 51.2752C12.8007 51.5196 12.2597 51.6417 11.6388 51.6417C11.018 51.6417 10.477 51.5196 10.0158 51.2752C9.55472 51.0283 9.19662 50.6916 8.9416 50.2653C8.68913 49.8363 8.5629 49.3489 8.5629 48.803V43.5154H9.52122V48.725C9.52122 49.1149 9.60623 49.462 9.77627 49.7661C9.94628 50.0677 10.1884 50.3055 10.5027 50.4797C10.8196 50.6513 11.1983 50.7371 11.6388 50.7371C12.0793 50.7371 12.458 50.6513 12.7749 50.4797C13.0918 50.3055 13.3339 50.0677 13.5014 49.7661C13.6714 49.462 13.7564 49.1149 13.7564 48.725V43.5154ZM18.8048 51.5014V43.5154H21.4788C22.0971 43.5154 22.6046 43.622 23.0013 43.8351C23.3981 44.0457 23.6917 44.3356 23.8823 44.7047C24.073 45.0738 24.1683 45.4937 24.1683 45.9642C24.1683 46.4347 24.073 46.852 23.8823 47.2159C23.6917 47.5799 23.3994 47.8658 23.0053 48.0738C22.6111 48.2792 22.1073 48.3819 21.4943 48.3819H19.3303V47.5084H21.4634C21.8858 47.5084 22.2259 47.446 22.4836 47.3212C22.7437 47.1964 22.9317 47.0196 23.0477 46.7909C23.1661 46.5595 23.2255 46.284 23.2255 45.9642C23.2255 45.6445 23.1661 45.365 23.0477 45.1258C22.9291 44.8867 22.7398 44.7021 22.4797 44.5721C22.2194 44.4395 21.8755 44.3733 21.4479 44.3733H19.7631V51.5014H18.8048ZM22.53 47.9139L24.4775 51.5014H23.3646L21.4479 47.9139H22.53ZM34.217 43.5154V51.5014H33.2897L28.9771 45.2311H28.8998V51.5014H27.9416V43.5154H28.8689L33.1968 49.8012H33.2742V43.5154H34.217ZM39.2694 43.5154V51.5014H38.3109V43.5154H39.2694ZM42.9343 44.3733V43.5154H48.8698V44.3733H46.3812V51.5014H45.4229V44.3733H42.9343ZM57.7185 43.5154H58.6769V48.803C58.6769 49.3489 58.5494 49.8363 58.2944 50.2653C58.0419 50.6916 57.685 51.0283 57.224 51.2752C56.7629 51.5196 56.2218 51.6417 55.6009 51.6417C54.98 51.6417 54.4392 51.5196 53.9781 51.2752C53.5169 51.0283 53.1589 50.6916 52.9038 50.2653C52.6514 49.8363 52.5251 49.3489 52.5251 48.803V43.5154H53.4834V48.725C53.4834 49.1149 53.5685 49.462 53.7384 49.7661C53.9084 50.0677 54.1506 50.3055 54.4649 50.4797C54.7818 50.6513 55.1604 50.7371 55.6009 50.7371C56.0414 50.7371 56.4201 50.6513 56.737 50.4797C57.0538 50.3055 57.2961 50.0677 57.4634 49.7661C57.6336 49.462 57.7185 49.1149 57.7185 48.725V43.5154ZM62.7669 51.5014V43.5154H65.441C66.0593 43.5154 66.5668 43.622 66.9635 43.8351C67.3603 44.0457 67.6539 44.3356 67.8445 44.7047C68.0351 45.0738 68.1305 45.4937 68.1305 45.9642C68.1305 46.4347 68.0351 46.852 67.8445 47.2159C67.6539 47.5799 67.3616 47.8658 66.9674 48.0738C66.5733 48.2792 66.0695 48.3819 65.4564 48.3819H63.2925V47.5084H65.4255C65.8479 47.5084 66.1881 47.446 66.4458 47.3212C66.7058 47.1964 66.8939 47.0196 67.0099 46.7909C67.1283 46.5595 67.1877 46.284 67.1877 45.9642C67.1877 45.6445 67.1283 45.365 67.0099 45.1258C66.8913 44.8867 66.7019 44.7021 66.4419 44.5721C66.1816 44.4395 65.8377 44.3733 65.4101 44.3733H63.7254V51.5014H62.7669ZM66.4921 47.9139L68.4397 51.5014H67.3267L65.4101 47.9139H66.4921ZM71.9038 51.5014V43.5154H76.6799V44.3733H72.862V47.0717H76.4325V47.9295H72.862V50.6435H76.7417V51.5014H71.9038Z" fill="white"/>
</svg>
