<svg width="188" height="31" viewBox="0 0 188 31" fill="none" xmlns="http://www.w3.org/2000/svg">
<path d="M40.9431 2.93652H54.5999V7.57016H45.7167V12.1284H54.5999V16.6565H45.7167V23.2702H54.5999V27.934H40.9431V2.93652Z" fill="white"/>
<path d="M86.5475 27.934H81.95L79.4752 13.3848L79.269 12.0932L78.8465 13.3145L73.9371 27.934H69.757L64.9131 13.3496L64.4956 12.0932L64.2843 13.3145L61.7391 27.934H57.1063L61.4272 2.93652H66.0951L71.5679 19.4407L71.8798 20.4157L72.1916 19.4407L77.7348 2.93652H82.3323L86.5475 27.934Z" fill="white"/>
<path d="M90.3873 2.93652H104.044V7.57016H95.1609V12.1284H104.044V16.6565H95.1609V23.2702H104.044V27.934H90.3873V2.93652Z" fill="white"/>
<path d="M114.88 2.93652C117.549 2.93652 119.634 3.54714 121.132 4.76585C122.631 5.98583 123.381 7.79003 123.381 10.1785C123.381 11.8043 122.974 13.1737 122.159 14.2894C121.346 15.4026 120.152 16.2482 118.572 16.8274L124.493 27.934H119.302L113.693 17.35H113.24V27.934H108.467V2.93652H114.88ZM115.433 12.7214C116.526 12.7214 117.346 12.5078 117.893 12.0782C118.439 11.6497 118.713 11.0052 118.713 10.1433C118.713 9.30903 118.421 8.67831 117.838 8.24862C117.257 7.82018 116.41 7.60534 115.298 7.60534H113.24V12.7214H115.433Z" fill="white"/>
<path d="M144.672 27.934L142.756 22.7828H132.373L130.457 27.934H125.507L135.16 2.93652H139.969L149.617 27.934H144.672ZM134.149 18.119H141.015L137.564 8.92708L134.149 18.119Z" fill="white"/>
<path d="M157.247 2.93652V23.4059H164.179V27.934H152.474V2.93652H157.247Z" fill="white"/>
<path d="M173.833 2.93652C178.387 2.93652 181.831 3.98186 184.165 6.07252C186.499 8.16067 187.666 11.269 187.666 15.4001C187.666 19.7862 186.499 22.9725 184.165 24.9589C181.831 26.9427 178.411 27.934 173.904 27.934H167.807V2.93652H173.833ZM174.739 23.2702C177.364 23.2702 179.373 22.6207 180.765 21.3203C182.159 20.0212 182.857 18.0122 182.857 15.2946C182.857 13.6499 182.508 12.2528 181.811 11.1032C181.117 9.95482 180.118 9.08539 178.818 8.49488C177.516 7.90185 175.972 7.60534 174.185 7.60534H172.581V23.2702H174.739Z" fill="white"/>
<g clip-path="url(#clip0_2_1276)">
<mask id="mask0_2_1276" style="mask-type:luminance" maskUnits="userSpaceOnUse" x="0" y="0" width="21" height="31">
<path d="M0 0H20.9763V30.9998H0V0Z" fill="white"/>
</mask>
<g mask="url(#mask0_2_1276)">
<path d="M20.8819 31.0032C13.9757 31.0032 7.06956 31.0026 0.163406 31.007C0.0319629 31.007 0.0154616 30.9736 0.0154616 30.8536C0.0188756 20.6301 0.0188756 10.4066 0.0148926 0.183035C0.0148926 0.0448875 0.0518786 0.027832 0.175924 0.027832C3.59571 0.031243 7.01493 0.0306746 10.4347 0.0306746C10.4689 0.110266 10.4125 0.158021 10.367 0.20464C9.9613 0.623063 9.56414 1.05001 9.16468 1.47469C8.56437 2.11371 7.95268 2.74134 7.36261 3.39C7.17824 3.59239 6.98592 3.78739 6.79644 3.98353C6.33098 4.46677 5.87463 4.95852 5.41088 5.44291C4.85779 6.01993 4.3104 6.60323 3.76414 7.18652C3.55247 7.41221 3.32315 7.62142 3.13027 7.86475C2.84348 8.22632 2.82868 8.56573 3.1166 8.93526C3.52232 9.45602 3.94281 9.9654 4.35877 10.4776C4.90788 11.1547 5.45583 11.833 6.00493 12.5095C6.78847 13.4748 7.57144 14.4402 8.3527 15.4066C9.02357 16.2372 9.69559 17.0667 10.3676 17.8961C11.1471 18.8575 11.9238 19.8211 12.7057 20.7807C13.236 21.4329 13.7618 22.0883 14.291 22.7415C14.9368 23.5393 15.5849 24.335 16.2285 25.1337C16.8595 25.9166 17.494 26.6966 18.1261 27.4789C18.8038 28.3169 19.4821 29.1543 20.161 29.9913C20.3816 30.2634 20.6065 30.533 20.8221 30.8094C20.866 30.8649 20.9205 30.9207 20.8819 31.0032Z" fill="white"/>
</g>
<mask id="mask1_2_1276" style="mask-type:luminance" maskUnits="userSpaceOnUse" x="17" y="9" width="15" height="22">
<path d="M17.6262 9.22827H31.0157V30.9999H17.6262V9.22827Z" fill="white"/>
</mask>
<g mask="url(#mask1_2_1276)">
<path fill-rule="evenodd" clip-rule="evenodd" d="M24.8799 31.0032C24.6637 30.3518 24.4447 29.7008 24.2301 29.0486C22.5294 23.869 20.8286 18.6899 19.1283 13.5102C18.6816 12.1509 18.2372 10.791 17.7866 9.43337C17.7399 9.29352 17.7752 9.27533 17.9078 9.27589C22.2272 9.27875 26.5461 9.27817 30.8653 9.27875C30.9167 9.27875 30.9672 9.28726 31.0185 9.29181C31.0185 10.6545 31.0185 12.0173 31.0185 13.38C30.8011 14.326 30.4472 15.2288 30.1523 16.1503C29.7421 17.4317 29.3143 18.7069 28.8954 19.9855C28.4836 21.2443 28.0681 22.5024 27.6562 23.7609C27.2345 25.0486 26.81 26.3357 26.3885 27.6234C26.043 28.6764 25.6998 29.7298 25.3534 30.782C25.3254 30.8667 25.2958 30.9481 25.2213 31.0032C25.1076 31.0032 24.9937 31.0032 24.8799 31.0032Z" fill="white"/>
</g>
<mask id="mask2_2_1276" style="mask-type:luminance" maskUnits="userSpaceOnUse" x="18" y="0" width="14" height="8">
<path d="M18.5022 0.49585H31.0177V7.62725H18.5022V0.49585Z" fill="white"/>
</mask>
<g mask="url(#mask2_2_1276)">
<path fill-rule="evenodd" clip-rule="evenodd" d="M31.0223 7.52589C26.8719 7.52589 22.7213 7.52589 18.5352 7.52589C18.7116 7.33316 18.8629 7.16717 19.0149 7.00229C20.9866 4.86697 22.9587 2.73278 24.927 0.59461C25.023 0.490571 25.0669 0.496825 25.1579 0.595746C26.4353 1.98746 27.718 3.37519 28.9988 4.7635C29.6424 5.46219 30.2853 6.1609 30.9295 6.85902C30.9569 6.88803 30.9909 6.91134 31.0223 6.93749C31.0223 7.13362 31.0223 7.32976 31.0223 7.52589Z" fill="white"/>
</g>
<mask id="mask3_2_1276" style="mask-type:luminance" maskUnits="userSpaceOnUse" x="13" y="0" width="11" height="7">
<path d="M13.8392 0H23.162V6.89945H13.8392V0Z" fill="white"/>
</mask>
<g mask="url(#mask3_2_1276)">
<path fill-rule="evenodd" clip-rule="evenodd" d="M23.0531 0.0310059C22.9273 0.22771 22.7509 0.380071 22.5943 0.549488C20.7104 2.595 18.8224 4.63765 16.9361 6.68144C16.898 6.72238 16.8655 6.769 16.8172 6.82984C16.4337 5.9259 16.0638 5.05436 15.6939 4.18284C15.1147 2.81842 14.536 1.45399 13.9567 0.088994C13.9493 0.0702333 13.9448 0.0503352 13.9391 0.0310059C16.9771 0.0310059 20.015 0.0310059 23.0531 0.0310059Z" fill="white"/>
</g>
<mask id="mask4_2_1276" style="mask-type:luminance" maskUnits="userSpaceOnUse" x="27" y="18" width="5" height="13">
<path d="M27.0952 18.8337H31.0163V30.6224H27.0952V18.8337Z" fill="white"/>
</mask>
<g mask="url(#mask4_2_1276)">
<path fill-rule="evenodd" clip-rule="evenodd" d="M31.0215 25.9856C30.7795 26.2181 30.5891 26.4945 30.3789 26.7531C29.3537 28.0135 28.3333 29.2772 27.311 30.54C27.292 30.5637 27.2693 30.5849 27.2477 30.607C27.2125 30.6132 27.1948 30.6014 27.2033 30.5627C27.4372 29.8413 27.6699 29.1192 27.906 28.399C28.924 25.2965 29.9425 22.1941 30.9623 19.0918C30.9776 19.0452 30.9788 18.9906 31.0215 18.9548C31.0215 21.2988 31.0215 23.6423 31.0215 25.9856Z" fill="white"/>
</g>
<mask id="mask5_2_1276" style="mask-type:luminance" maskUnits="userSpaceOnUse" x="26" y="0" width="6" height="5">
<path d="M26.9489 0H31.0157V4.42529H26.9489V0Z" fill="white"/>
</mask>
<g mask="url(#mask5_2_1276)">
<path fill-rule="evenodd" clip-rule="evenodd" d="M31.0187 4.36647C30.639 3.96055 30.2583 3.55578 29.8817 3.14758C28.9451 2.13336 28.0102 1.11799 27.0748 0.102631C27.0543 0.0804594 27.0378 0.0543077 27.0197 0.0304304C28.3164 0.0304304 29.6132 0.0315674 30.9099 0.0275879C31.0021 0.0275879 31.0209 0.0463487 31.0209 0.139016C31.0174 1.54835 31.0187 2.95713 31.0187 4.36647Z" fill="white"/>
</g>
<mask id="mask6_2_1276" style="mask-type:luminance" maskUnits="userSpaceOnUse" x="29" y="28" width="3" height="3">
<path d="M29.1333 28.73H31.015V30.9994H29.1333V28.73Z" fill="white"/>
</mask>
<g mask="url(#mask6_2_1276)">
<path fill-rule="evenodd" clip-rule="evenodd" d="M29.1923 31.0029C29.8022 30.2491 30.4115 29.4958 31.0215 28.7419C31.0215 29.4646 31.0199 30.1871 31.0233 30.9103C31.0239 30.9876 31.0056 31.0057 30.9283 31.0053C30.3495 31.0013 29.7708 31.0029 29.1923 31.0029Z" fill="white"/>
</g>
<path fill-rule="evenodd" clip-rule="evenodd" d="M5.55774 9.27825C5.65275 9.27825 5.7091 9.27825 5.76542 9.27825C9.08222 9.27825 12.399 9.27881 15.7158 9.27539C15.8541 9.27539 15.915 9.30609 15.9622 9.44879C18.2576 16.4574 20.5592 23.4638 22.8587 30.4712C22.8792 30.5326 22.9197 30.5934 22.8883 30.6822C17.1162 23.553 11.3497 16.4312 5.55774 9.27825Z" fill="white"/>
<path fill-rule="evenodd" clip-rule="evenodd" d="M12.2846 0.626221C13.2645 2.93438 14.2363 5.22377 15.2117 7.52169C12.0593 7.52169 8.92516 7.52169 5.75745 7.52169C7.94132 5.21467 10.1064 2.92699 12.2846 0.626221Z" fill="white"/>
<mask id="mask7_2_1276" style="mask-type:luminance" maskUnits="userSpaceOnUse" x="32" y="28" width="3" height="3">
<path d="M32.0238 28.7949H34.2089V30.978H32.0238V28.7949Z" fill="white"/>
</mask>
<g mask="url(#mask7_2_1276)">
<path d="M33.1128 28.9725C32.6104 28.9725 32.2013 29.3811 32.2013 29.8831C32.2013 30.3858 32.6104 30.7938 33.1128 30.7938C33.6153 30.7938 34.0245 30.3858 34.0245 29.8831C34.0245 29.3811 33.6153 28.9725 33.1128 28.9725ZM33.1128 30.9712C32.9661 30.9712 32.8232 30.9428 32.6889 30.886C32.5593 30.8309 32.4425 30.7523 32.3431 30.6529C32.2428 30.5529 32.1643 30.4363 32.1098 30.3067C32.0528 30.1724 32.0238 30.0303 32.0238 29.8831C32.0238 29.7364 32.0528 29.5937 32.1098 29.4596C32.1643 29.33 32.2428 29.214 32.3431 29.114C32.4425 29.0139 32.5593 28.9354 32.6889 28.8809C32.8232 28.8239 32.9661 28.7949 33.1128 28.7949C33.2598 28.7949 33.4025 28.8239 33.5368 28.8809C33.6666 28.9354 33.7832 29.0139 33.8834 29.114C33.9828 29.214 34.0613 29.33 34.1167 29.4596C34.1735 29.5937 34.2021 29.7364 34.2021 29.8831C34.2021 30.0303 34.1735 30.1724 34.1167 30.3067C34.0613 30.4363 33.9828 30.5529 33.8834 30.6529C33.7832 30.7523 33.6666 30.8309 33.5368 30.886C33.4025 30.9428 33.2598 30.9712 33.1128 30.9712Z" fill="white"/>
<path d="M33.27 29.6789C33.27 29.7079 33.2631 29.7341 33.2501 29.7568C33.2376 29.7786 33.2136 29.7961 33.179 29.8092C33.1601 29.816 33.1357 29.8217 33.1071 29.8251C33.0788 29.8291 33.0429 29.8307 33.0015 29.8307H32.9224V29.5465H33.0423C33.0806 29.5465 33.1136 29.5483 33.1398 29.5523C33.1647 29.5557 33.1858 29.5614 33.2028 29.5686C33.2273 29.5795 33.2444 29.5944 33.2547 29.6125C33.2648 29.6318 33.27 29.654 33.27 29.6789ZM33.2523 29.9793C33.3286 29.9547 33.3865 29.9179 33.4248 29.87C33.4657 29.8188 33.4862 29.7558 33.4862 29.6824C33.4862 29.6125 33.4691 29.5533 33.4351 29.5068C33.4014 29.4607 33.3535 29.4249 33.2915 29.4016C33.2597 29.3897 33.2211 29.3806 33.1762 29.3748C33.1317 29.3691 33.0834 29.3657 33.0321 29.3657H32.7118V30.4028H32.9224V30.0117H33.0304L33.3058 30.4028H33.5597L33.2523 29.9793Z" fill="white"/>
</g>
</g>
<defs>
<clipPath id="clip0_2_1276">
<rect width="34.2208" height="31" fill="white"/>
</clipPath>
</defs>
</svg>
