<svg width="164" height="52" viewBox="0 0 164 52" fill="none" xmlns="http://www.w3.org/2000/svg">
<path d="M43.9379 4.41177C47.2648 4.2692 51.1327 4.90255 53.868 6.93498C58.2892 10.2201 57.8387 15.1568 57.8359 20.06L57.8339 27.8842C57.834 31.4784 57.7326 33.0167 58.2444 36.523C55.8303 36.6441 52.4951 36.5793 50.0327 36.5438C49.8006 35.3138 49.7487 33.4949 49.7504 32.2554C48.6852 33.7797 48.0431 34.7993 46.3989 35.8543C43.8031 37.52 40.1866 37.8074 37.2292 37.1463C34.6978 36.5805 32.7433 35.2889 31.3561 33.0748C29.06 28.9536 30.0282 23.3851 33.4557 20.1873C37.2856 16.6141 43.7484 16.2881 48.6943 16.4342C48.7047 15.4342 48.7611 14.3299 48.6687 13.3463C48.4769 11.3031 46.9206 9.8228 44.8846 9.72747C42.0461 9.59463 40.4615 11.4608 40.3277 14.1548C37.5237 14.1964 34.2704 14.2103 31.4817 14.1418C31.5027 6.52918 37.6462 4.72794 43.9379 4.41177ZM41.7057 30.8922C47.8997 32.6466 48.681 26.2693 48.6327 21.87C47.9258 21.8689 46.9289 21.838 46.2451 21.8821C43.0208 22.0593 38.6831 22.7506 38.9097 27.0436C39.0046 28.8421 40.0598 30.1956 41.7057 30.8922Z" fill="white"/>
<path d="M127.495 4.97171C127.729 4.93459 128.605 4.92175 128.857 4.9241C132.596 4.95908 136.445 5.89113 139.132 8.64814C143.189 12.81 143.489 18.4683 143.472 23.9328C136.817 23.9736 130.161 23.9796 123.504 23.9507C123.316 29.4026 125.273 33.2321 131.635 31.146C133.018 30.6926 133.812 28.9398 134.266 27.6494L142.185 27.6479C142.255 27.6501 142.346 27.6832 142.417 27.704C142.768 29.0498 141.132 32.5956 140.165 33.7047C137.688 36.5498 134.624 37.4462 131.072 37.8243C121.191 38.7353 115.003 34.5953 114.173 24.4509C113.394 14.9555 116.859 5.91246 127.495 4.97171ZM123.483 17.6335C125.539 17.6523 127.594 17.6571 129.649 17.6479L134.04 17.6483C133.885 13.8615 132.878 10.8982 128.4 11.1271C128.261 11.1344 128.123 11.1477 127.986 11.167C124.322 11.6134 123.654 14.452 123.483 17.6335Z" fill="white"/>
<path d="M0.0144816 5.98092C3.16456 5.9484 6.36557 5.97935 9.51961 5.98111L9.52653 18.0527C12.7632 18.1036 16.1172 18.0589 19.3632 18.0593C19.42 14.0869 19.3704 9.96464 19.3733 5.98544C22.4754 5.9406 25.6625 5.97924 28.771 5.98125C28.8862 12.686 28.7761 19.697 28.7748 26.4215L28.7855 32.9275C28.7878 33.7413 28.8359 35.6934 28.7399 36.4212L19.3662 36.4221C19.4887 32.6402 19.3721 28.2047 19.37 24.3704C16.1674 24.3167 12.5884 24.4712 9.4491 24.3566L9.43759 36.4183L0.0140381 36.4233L0.0144816 5.98092Z" fill="white"/>
<path d="M87.5684 6.04088L97.0302 6.05275C97.1171 10.0633 97.0455 14.3471 97.0479 18.3831C99.5641 14.7646 102.185 11.2059 104.722 7.60087C105.09 7.0782 105.463 6.54965 105.86 6.04918C109.319 5.96004 113.426 6.01099 116.898 6.06196C113.406 10.5596 109.663 14.9706 106.192 19.4755L114.234 31.5968L117.443 36.4642C116.851 36.4871 116.252 36.5005 115.659 36.4929C112.395 36.451 109.095 36.5671 105.835 36.476C103.003 31.4756 99.9199 26.4753 97.0367 21.4826C97.0833 26.3808 97.0954 31.6 97.027 36.4916C93.8741 36.5047 90.7212 36.5018 87.5692 36.4831C87.512 32.9886 87.5627 29.361 87.5627 25.8562L87.5684 6.04088Z" fill="white"/>
<path d="M71.5335 4.40594C71.6357 4.38671 71.7426 4.38559 71.8461 4.37954C77.5403 4.05086 83.8423 6.46091 85.7668 12.2777C86.2353 13.6929 86.3094 14.7164 86.3883 16.2L77.3065 16.2036C77.1407 14.6598 76.9422 13.1486 75.8817 11.9154C74.7167 10.5609 72.205 9.9109 70.7919 11.2456C69.493 12.4775 69.0415 14.6476 68.8163 16.3713C68.401 19.5514 68.0554 30.908 72.7341 31.1072C73.754 31.1522 74.7492 30.7858 75.4965 30.0903C76.875 28.8207 77.3099 26.8659 77.3831 25.063C78.7539 25.0325 80.2169 25.0564 81.5949 25.0546C83.1831 25.0461 84.772 25.0514 86.3601 25.0704C86.0566 32.3752 82.292 36.2495 75.1098 37.2332C59.5143 39.3691 54.7582 19.2518 62.8094 9.00106C65.0163 6.1911 68.0109 4.76392 71.5335 4.40594Z" fill="white"/>
<path d="M161.615 5.61329C162.314 5.56562 162.967 5.57008 163.666 5.57069C163.697 8.25838 163.68 11.0182 163.661 13.7075C161.063 13.6955 157.666 13.376 155.726 15.4167C153.591 17.6617 154.056 22.6754 154.056 25.5548L154.052 36.4194L144.892 36.422C144.867 35.1957 144.885 33.9052 144.883 32.6739L144.831 22.2819C144.828 18.9525 144.847 15.6199 144.827 12.291C144.815 10.1886 144.649 8.00711 144.532 5.90537L152.933 5.90568C153.004 7.8126 153.066 9.71988 153.117 11.6275C154.931 7.54708 157.203 6.05479 161.615 5.61329Z" fill="white"/>
<path d="M65.2024 42.7312C66.2495 42.7967 66.2891 43.0653 67.0461 43.6085C67.1836 43.4264 67.1603 43.149 67.1845 42.8838L68.4661 42.894C68.366 44.6785 68.7366 49.2747 67.9832 50.6134C67.6366 51.2293 67.0721 51.6331 66.3959 51.8205C65.557 52.0531 64.3862 52.1146 63.6055 51.6678C63.1883 51.429 62.7164 50.9939 62.5994 50.5101C62.5467 50.2921 62.6156 50.1467 62.7321 49.9657C63.0642 49.7814 63.1104 49.8488 63.5447 49.8512C63.9756 49.8757 63.8555 50.1745 64.1199 50.448C64.4466 50.7861 65.0275 51.0984 65.5035 51.117C67.0008 51.1755 67.1105 49.3145 67.1786 48.2489C64.4676 51.1273 61.2103 47.9737 62.4009 44.7074C62.9097 43.3116 63.7886 42.833 65.2024 42.7312ZM65.6726 48.3282C67.1018 47.9005 67.3523 46.293 66.9874 45.0034C66.6849 43.9346 65.9541 43.6084 64.8901 43.6734C64.3494 43.9091 63.9246 44.2607 63.7512 44.8357C63.2451 46.5146 63.6199 48.3786 65.6726 48.3282Z" fill="white"/>
<path d="M121.082 41.3093C121.831 41.2912 122.639 41.3094 123.393 41.3126C124.26 43.5367 125.179 45.7421 126.035 47.9728C126.926 45.8711 127.811 43.4559 128.651 41.3108C129.329 41.2907 130.091 41.3085 130.776 41.3092C130.79 44.0137 130.789 46.7182 130.774 49.4227C130.384 49.4551 129.857 49.4254 129.455 49.4137L129.454 43.6032L129.461 42.2485C128.461 44.6065 127.521 47.0595 126.54 49.4385C126.14 49.4562 125.706 49.4309 125.304 49.416C124.302 47.1758 123.39 44.5642 122.393 42.2582C122.404 44.6491 122.4 47.0402 122.377 49.4312C121.975 49.4503 121.492 49.4309 121.084 49.4249C121.048 46.7488 121.082 43.9919 121.082 41.3093Z" fill="white"/>
<path d="M148.355 40.1006L149.572 40.0986C149.598 43.1268 149.492 46.42 149.651 49.4222C149.219 49.4523 148.795 49.4207 148.363 49.3975L148.275 48.5496C147.363 49.6127 146.425 49.7948 145.095 49.4134C143.068 48.4329 142.947 45.0182 144.372 43.5222C144.86 43.0066 145.536 42.7112 146.246 42.7035C147.163 42.6856 147.725 43.031 148.351 43.6341C148.341 42.4631 148.353 41.2731 148.355 40.1006ZM147.109 48.7021C148.902 47.7928 148.924 44.5189 147.036 43.7172C146.862 43.6432 146.319 43.6581 146.117 43.6731C143.993 44.4246 144.189 49.0496 147.109 48.7021Z" fill="white"/>
<path d="M28.8294 40.1155L30.7587 40.1219L30.767 43.6593L30.7923 43.6326C31.3778 43.0193 31.7156 42.7441 32.588 42.7403C34.1893 42.7335 35.0075 43.7075 35.0022 45.2569C34.9973 46.6518 34.9832 48.0402 34.9672 49.4268C34.3287 49.4548 33.6762 49.4305 33.0364 49.4161L33.0361 47.0046C33.0474 46.0071 33.3253 44.0724 31.8941 44.0518C31.6534 44.0459 31.4211 44.1403 31.2528 44.3125C30.4927 45.1052 30.7543 48.2704 30.7618 49.4715C30.1376 49.486 29.4572 49.4712 28.8285 49.4698L28.8294 40.1155Z" fill="white"/>
<path d="M0.0141902 40.0872L1.94543 40.1016L1.95412 45.6415C2.50229 44.7516 3.26377 43.7264 3.87456 42.8594L6.03347 42.8687C5.38878 43.7645 4.50797 44.8284 3.81398 45.7112L5.78004 48.7812L6.16685 49.3914C5.44614 49.4528 4.58481 49.4433 3.86358 49.4183C3.25679 48.1915 2.5607 46.9952 1.95241 45.7452L1.94513 49.4234C1.2929 49.4575 0.6666 49.4381 0.0145637 49.4245C-0.0176356 46.3317 0.0135044 43.1843 0.0141902 40.0872Z" fill="white"/>
<path d="M40.9917 42.7241C43.5862 42.8174 44.2885 44.232 44.2656 46.6493C43.9213 46.6565 40.1328 46.5713 40.0805 46.7164C39.8416 47.3795 40.3972 48.5294 41.4026 48.1854C41.9123 48.011 41.9206 48.0085 42.2496 47.4327L44.0118 47.4435C43.7401 48.9263 43.031 49.4052 41.5552 49.5944C39.6316 49.834 38.1189 48.8454 37.9712 46.8413C37.8041 44.5716 38.6231 42.9679 40.9917 42.7241ZM41.8118 45.3504L42.1064 45.3314C42.4234 44.8516 42.0429 44.418 41.6343 44.156C41.3307 43.9613 40.9082 44.0358 40.5641 44.0624C40.2461 44.3704 39.8641 44.7418 40.1102 45.1885C40.5998 45.4539 41.2415 45.3665 41.8118 45.3504Z" fill="white"/>
<path d="M93.1705 43.9716C93.2961 43.8178 93.4289 43.6694 93.5673 43.5267C94.452 42.6277 96.2139 42.6085 97.117 43.4897C97.8326 44.1884 97.765 45.2509 97.757 46.17C97.7481 47.2978 97.7376 48.4323 97.7248 49.5634C97.3368 49.5811 96.8788 49.5529 96.4852 49.5383C96.4844 48.9034 96.5198 48.2545 96.5029 47.6218C96.4538 45.8111 97.0333 43.3309 94.2459 43.9364C92.9822 44.7534 93.3983 47.9936 93.3887 49.4714L92.1692 49.4674C92.1499 48.5981 92.4413 44.5321 91.7088 44.1333C88.2339 42.2404 89.0461 47.7125 88.9954 49.4297C88.6163 49.4437 88.1446 49.4218 87.759 49.414L87.7647 42.8849L89.0719 42.888L89.1097 43.7641C90.3461 42.4622 92.1225 42.4611 93.1705 43.9716Z" fill="white"/>
<path d="M50.9306 42.7263C52.3385 42.8171 53.2797 43.5634 53.2979 45.0456C53.316 46.5034 53.2785 47.9682 53.2572 49.4264C52.5876 49.4509 51.9912 49.433 51.3222 49.4125C51.3219 48.3927 51.942 42.2609 49.403 44.4489C48.8732 45.3476 49.0809 48.1756 49.0512 49.4238C48.3647 49.447 47.819 49.4388 47.1323 49.4104L47.1458 42.8848C47.7589 42.8753 48.372 42.8756 48.985 42.8857C49.1114 43.054 49.0703 43.1694 49.075 43.4121C49.2932 43.4938 49.8426 42.9417 50.1751 42.8511C50.4765 42.7691 50.6221 42.7555 50.9306 42.7263Z" fill="white"/>
<path d="M137.379 42.7261C139.788 42.8237 140.225 43.7541 140.155 46.0333C140.122 47.1107 140.123 48.3429 140.16 49.4251L138.998 49.4433C138.993 49.116 138.991 49.0096 138.916 48.6829C138.765 48.7493 138.528 49.0026 138.369 49.1077C137.035 49.9852 135.653 49.7502 134.764 48.4457C134.028 45.5698 136.854 45.3677 138.876 45.3735C138.877 45.1498 138.864 44.525 138.758 44.3629C137.942 43.1153 136.643 43.4351 136.25 44.7304L134.957 44.6912C135.31 43.1496 135.835 42.867 137.379 42.7261ZM137.237 48.6565C138.707 48.3929 138.848 47.5402 138.891 46.2006C138.573 46.1946 138.062 46.1688 137.759 46.1858C137.127 46.255 136.654 46.2934 136.229 46.8256C135.808 47.3527 135.868 47.9756 136.425 48.3697C136.68 48.5499 136.939 48.5987 137.237 48.6565Z" fill="white"/>
<path d="M103.891 42.7285C106.335 42.8335 106.683 43.8722 106.593 46.1369C106.551 47.1727 106.57 48.3835 106.606 49.4261C106.296 49.4455 105.848 49.5094 105.585 49.3847C105.388 49.0917 105.439 48.9754 105.404 48.5831C104.189 49.9435 101.98 50.0651 101.177 48.2888C100.761 45.4696 103.226 45.3735 105.314 45.3725C105.318 45.1396 105.322 44.5206 105.207 44.3515C104.351 43.1005 103.133 43.4625 102.69 44.7289L101.412 44.6934C101.716 43.1392 102.373 42.8421 103.891 42.7285ZM103.701 48.6499C105.212 48.3824 105.259 47.5491 105.351 46.2022C105.029 46.1956 104.534 46.1702 104.226 46.1867C101.989 46.3972 101.776 48.3537 103.701 48.6499Z" fill="white"/>
<path d="M74.6907 42.7322C77.112 42.8959 77.6112 44.2347 77.5925 46.4301C76.0893 46.4137 74.5859 46.4213 73.0829 46.453C73.0845 46.682 73.0776 47.001 73.1147 47.1952C73.4667 49.0353 75.6042 49.3586 76.2507 47.4956C76.296 47.365 76.4893 47.3732 76.6247 47.3532C77.1231 47.3353 77.2932 47.2269 77.4924 47.7001C77.4639 48.7302 75.8072 49.5576 74.8809 49.603C73.0456 49.7419 71.8136 48.5494 71.7321 46.7161C71.6358 44.5524 72.3706 42.9037 74.6907 42.7322ZM73.0476 45.5098L75.2361 45.5185L76.3351 45.5161C76.1258 44.0782 75.7553 43.541 74.2116 43.6828C73.3221 44.1678 73.2266 44.5432 73.0476 45.5098Z" fill="white"/>
<path d="M155.882 42.7344C158.329 42.8959 158.78 44.2426 158.758 46.4313C158 46.4325 154.704 46.3039 154.287 46.5678C154.181 46.7777 154.132 46.8795 154.195 47.0978C154.722 48.9175 156.696 49.4811 157.489 47.4242C157.507 47.3776 157.695 47.365 157.761 47.3543C158.091 47.3516 158.316 47.3441 158.646 47.3967L158.681 47.5277C158.116 49.7048 155.534 50.2028 153.891 48.9551C152.332 47.7714 152.629 43.8259 154.552 43.0275C155.064 42.8151 155.304 42.7739 155.882 42.7344ZM154.253 45.5116L156.433 45.5187L157.491 45.5153C157.369 44.0848 156.924 43.5672 155.426 43.6763C154.525 44.1276 154.386 44.5542 154.253 45.5116Z" fill="white"/>
<path d="M23.1101 42.7222C24.1886 42.7741 25.2573 43.0403 25.77 44.0952C25.9361 44.4369 26.0982 44.8491 25.9727 45.2276C25.6398 45.3186 24.5816 45.2746 24.1769 45.2688C23.717 43.0405 22.0052 44.2186 22.3487 46.5164C22.6272 48.3797 23.6397 49.1813 24.2028 47.0187L25.2462 47.0167L25.7449 47.0237C26.2865 47.3602 25.939 48.1614 25.5985 48.5007C22.2019 51.8855 18.6042 47.0617 21.066 43.7425C21.5868 43.0402 22.2582 42.8142 23.1101 42.7222Z" fill="white"/>
<path d="M45.6886 0.028891C48.1543 -0.031572 50.8466 0.0214809 53.3295 0.0224671C53.3463 0.945463 53.3493 1.86865 53.3384 2.79174C50.9367 2.85747 48.1022 2.81819 45.6852 2.7829C45.7325 2.06291 45.689 0.791729 45.6886 0.028891Z" fill="white"/>
<path d="M16.307 41.0115L16.461 41.0496C16.5428 41.4717 16.5086 42.3932 16.5054 42.8584L17.946 42.8909L17.9395 44.2179L16.4549 44.228C16.4435 45.2176 16.4275 46.2122 16.4452 47.2013C16.4664 48.3896 16.8629 48.3043 17.8777 48.2438L17.8829 49.4319C17.4297 49.5244 16.87 49.5615 16.4021 49.605C14.9131 49.569 14.4942 48.7787 14.4955 47.3951C14.4966 46.3433 14.5141 45.2828 14.5193 44.2307L13.2336 44.2119L13.2338 42.8836L14.5102 42.8694L14.5285 41.6292C15.04 41.4224 15.7708 41.195 16.307 41.0115Z" fill="white"/>
<path d="M35.0581 0.0239818C37.5574 -0.0162877 40.1645 0.0220737 42.6721 0.0230463L42.6754 2.78911C40.3792 2.87843 37.3866 2.81343 35.0526 2.78688C35.049 1.86591 35.0507 0.944929 35.0581 0.0239818Z" fill="white"/>
<path d="M113.467 42.7192C113.647 42.6981 113.829 42.6892 114.01 42.6922C115.658 42.7116 116.426 43.6417 116.426 45.2585C116.424 46.6292 116.407 48.0035 116.393 49.3743C116.005 49.3857 115.547 49.3634 115.154 49.3538C115.142 48.1891 115.175 46.9893 115.177 45.8228C115.18 44.2847 114.645 43.3491 112.943 43.8348C111.544 44.7687 112.007 47.8 111.987 49.4308C111.606 49.4423 111.148 49.4233 110.76 49.4176L110.765 42.8844C111.156 42.8764 111.519 42.8834 111.909 42.8941C112.023 43.035 112.01 43.3632 112.029 43.583C112.399 43.4373 112.5 43.0136 113.467 42.7192Z" fill="white"/>
<path d="M8.80348 42.8855C9.43405 42.8754 10.0961 42.8879 10.7294 42.8902L10.7492 47.0277C10.7511 47.6308 10.7783 48.8941 10.6917 49.4311C10.064 49.4545 9.4256 49.43 8.79688 49.4145L8.80348 42.8855Z" fill="white"/>
<path d="M83.7264 42.7936C83.9655 42.7748 84.0999 42.7424 84.306 42.8581C84.4702 43.0848 84.3977 43.6244 84.3832 43.9311C81.2947 44.01 82.2397 46.0397 82.0836 48.3268C82.0602 48.6666 82.0787 49.0329 82.0763 49.3764L80.8359 49.3587L80.8383 42.8619L82.0803 42.8614L82.0948 43.87C82.6076 43.1059 82.8249 42.9785 83.7264 42.7936Z" fill="white"/>
<path d="M8.73389 40.0896C9.43272 40.091 10.1316 40.0959 10.8304 40.1043C10.8448 40.6633 10.8276 41.2426 10.819 41.8032C10.1303 41.8246 9.42708 41.8075 8.73719 41.7991L8.73389 40.0896Z" fill="white"/>
<path d="M162.023 47.6403C162.554 47.611 163.198 47.6304 163.738 47.6325C163.743 48.2324 163.742 48.8324 163.735 49.4323C163.127 49.4566 162.617 49.4355 162.011 49.4102C162.008 48.8202 162.012 48.2302 162.023 47.6403Z" fill="white"/>
<path d="M57.0126 47.6395C57.5479 47.6126 58.1566 47.6332 58.6977 47.6391C58.7032 48.1046 58.7405 49.0075 58.6622 49.432C58.1231 49.457 57.5476 49.429 57.0057 49.4135L57.0126 47.6395Z" fill="white"/>
</svg>
