<svg width="176" height="42" viewBox="0 0 176 42" fill="none" xmlns="http://www.w3.org/2000/svg">
<path d="M6.10352e-05 23.7939V0.574885H3.98705L21.2427 19.6739V0.574885H24.0496V23.7939H21.2427L2.67932 3.06606V23.7939H6.10352e-05ZM35.0644 15.2664H47.5038L41.2841 2.77861L35.0644 15.2664ZM27.6326 23.7939L39.5617 0.574885H43.0065L54.9036 23.7939H51.7459L48.7477 17.7576H33.7885L30.7584 23.7939H27.6326ZM80.6753 0.574885V14.2444C80.6753 22.6441 74.1362 24.3687 68.7459 24.3687C63.3555 24.3687 56.8169 22.6441 56.8169 14.2444V0.574885H59.6237V14.2444C59.6237 19.578 63.0366 22.0053 68.7459 22.0053C74.4552 22.0053 77.8684 19.578 77.8684 14.2444V0.574885H80.6753ZM95.6769 23.7939V3.06606H84.481V0.574885H109.679V3.06606H98.4837V23.7939H95.6769ZM113.38 23.7939V0.574885H116.187V23.7939H113.38ZM143.882 16.4162L146.37 17.6298C143.882 22.4525 139.577 24.3687 133.931 24.3687C124.936 24.3687 120.694 18.9712 120.694 12.2323C120.694 4.24776 126.085 0 133.899 0C138.875 0 143.946 1.91628 146.02 6.64312L143.596 7.76095C141.969 3.96032 138.365 2.36342 133.931 2.36342C127.297 2.36342 123.565 5.97242 123.565 12.5836C123.565 17.9173 127.169 21.8776 134.186 21.8776C138.779 21.8776 141.969 19.9613 143.882 16.4162ZM155.546 15.2664H167.985L161.766 2.77861L155.546 15.2664ZM148.114 23.7939L160.044 0.574885H163.488L175.385 23.7939H172.228L169.23 17.7576H154.27L151.24 23.7939H148.114Z" fill="white"/>
<path d="M62.5724 33.1836H64.1709V36.43H69.6645V33.1836H71.2631V41.3785H69.6645V37.8503H64.1709V41.3785H62.5724V33.1836ZM75.4887 37.3431C75.4887 36.7795 75.5712 36.2384 75.7363 35.7199C75.9089 35.1938 76.1866 34.7279 76.5694 34.3221C76.9596 33.9163 77.4624 33.5932 78.0778 33.3527C78.7008 33.1047 79.4625 32.9807 80.3631 32.9807C81.2637 32.9807 82.0217 33.1047 82.6371 33.3527C83.26 33.5932 83.7628 33.9163 84.1456 34.3221C84.5358 34.7279 84.8135 35.1938 84.9786 35.7199C85.1512 36.2384 85.2375 36.7795 85.2375 37.3431C85.2375 37.7714 85.1625 38.2336 85.0124 38.7296C84.8698 39.218 84.6146 39.6764 84.2469 40.1048C83.8867 40.5256 83.3913 40.8788 82.7609 41.1644C82.1305 41.4424 81.3312 41.5814 80.3631 41.5814C79.395 41.5814 78.5957 41.4424 77.9653 41.1644C77.3349 40.8788 76.8358 40.5256 76.468 40.1048C76.1078 39.6764 75.8526 39.218 75.7025 38.7296C75.5599 38.2336 75.4887 37.7714 75.4887 37.3431ZM80.3631 40.2062C80.7458 40.2062 81.1323 40.1611 81.5226 40.071C81.9129 39.9808 82.2618 39.823 82.5695 39.5975C82.8847 39.3721 83.1399 39.0715 83.335 38.6957C83.5377 38.3125 83.639 37.8315 83.639 37.2529C83.639 36.7569 83.5564 36.3286 83.3913 35.9679C83.2262 35.6071 82.9973 35.3066 82.7046 35.0661C82.4119 34.8256 82.063 34.649 81.6577 34.5363C81.2599 34.416 80.8284 34.3559 80.3631 34.3559C79.8978 34.3559 79.4625 34.416 79.0572 34.5363C78.6595 34.649 78.3143 34.8256 78.0216 35.0661C77.7289 35.3066 77.5 35.6071 77.3349 35.9679C77.1698 36.3286 77.0872 36.7569 77.0872 37.2529C77.0872 37.8315 77.1848 38.3125 77.3799 38.6957C77.5825 39.0715 77.8377 39.3721 78.1454 39.5975C78.4606 39.823 78.8133 39.9808 79.2036 40.071C79.5938 40.1611 79.9803 40.2062 80.3631 40.2062ZM90.8587 35.1675H90.8362V41.3785H89.4178V33.1836H91.5679L94.1234 39.2594L96.7238 33.1836H98.8289V41.3785H97.4105V35.1675H97.388L94.765 41.3785H93.4929L90.8587 35.1675ZM103.535 33.1836H110.874V34.5588H105.133V36.4638H110.075V37.8391H105.133V40.0033H111.009V41.3785H103.535V33.1836Z" fill="white"/>
</svg>
